<?xml version="1.0" encoding="UTF-8"?>
<svg width="93px" height="33px" viewBox="0 0 93 33" version="1.1" xmlns="http://www.w3.org/2000/svg" xmlns:xlink="http://www.w3.org/1999/xlink">
    <!-- Generator: Sketch 50.2 (55047) - http://www.bohemiancoding.com/sketch -->
    <title>Group 9</title>
    <desc>Created with Sketch.</desc>
    <defs></defs>
    <g id="Page-1" stroke="none" stroke-width="1" fill="none" fill-rule="evenodd">
        <g id="1-Exchange-1200+" transform="translate(-389.000000, -27.000000)">
            <g id="Top-nav" transform="translate(392.000000, 30.000000)">
                <g id="Page-1">
                    <g id="Group-9">
                        <path d="M48.1542727,19.0359091 C53.3879091,19.0359091 57.6306364,14.7931818 57.6306364,9.55954545 C57.6306364,4.32590909 53.3879091,0.0822727273 48.1542727,0.0822727273 C42.9206364,0.0822727273 38.6779091,4.32590909 38.6779091,9.55954545 L38.6779091,27.135" id="Stroke-1" stroke="#FFFFFF" stroke-width="5" stroke-linecap="square"></path>
                        <path d="M27.135,13.6090909 C27.135,6.13909091 21.0795455,0.0827272727 13.6086364,0.0827272727 C6.13863636,0.0827272727 0.0822727273,6.13909091 0.0822727273,13.6090909 C0.0822727273,21.0790909 6.13863636,27.1345455 13.6086364,27.1345455 C21.0795455,27.1345455 27.135,21.0790909 27.135,13.6090909 Z" id="Stroke-3" stroke="#FFFFFF" stroke-width="5" stroke-linecap="square"></path>
                        <path d="M60.1268182,27.1349091 C67.5968182,27.1349091 73.6522727,21.0794545 73.6522727,13.6094545 C73.6522727,6.13945455 79.7086364,0.0830909091 87.1786364,0.0830909091" id="Stroke-5" stroke="#FFFFFF" stroke-width="5" stroke-linecap="square"></path>
                        <path d="M84.5454545,26.8181818 C84.5454545,25.3118182 85.77,24.0909091 87.2727273,24.0909091 C88.7790909,24.0909091 90,25.3145455 90,26.8181818 C90,28.3245455 88.7754545,29.5454545 87.2727273,29.5454545 C85.7663636,29.5454545 84.5454545,28.3218182 84.5454545,26.8181818" id="Fill-7" fill="#FF3366"></path>
                    </g>
                </g>
            </g>
        </g>
    </g>
</svg>