<?xml version="1.0" encoding="UTF-8"?>
<svg width="68px" height="24px" viewBox="0 0 68 24" version="1.1" xmlns="http://www.w3.org/2000/svg" xmlns:xlink="http://www.w3.org/1999/xlink">
    <!-- Generator: Sketch 50.2 (55047) - http://www.bohemiancoding.com/sketch -->
    <title>Group 9</title>
    <desc>Created with Sketch.</desc>
    <defs></defs>
    <g id="Page-1" stroke="none" stroke-width="1" fill="none" fill-rule="evenodd">
        <g id="4-Exchange-Mobile" transform="translate(-32.000000, -16.000000)">
            <g id="Top-Nav" transform="translate(34.000000, 18.000000)">
                <g id="Top-nav">
                    <g id="Page-1">
                        <g id="Group-9">
                            <path d="M35.3131333,13.9596667 C39.1511333,13.9596667 42.2624667,10.8483333 42.2624667,7.01033333 C42.2624667,3.17233333 39.1511333,0.0603333333 35.3131333,0.0603333333 C31.4751333,0.0603333333 28.3638,3.17233333 28.3638,7.01033333 L28.3638,19.899" id="Stroke-1" stroke="#000000" stroke-width="3" stroke-linecap="square"></path>
                            <path d="M19.899,9.98 C19.899,4.502 15.4583333,0.0606666667 9.97966667,0.0606666667 C4.50166667,0.0606666667 0.0603333333,4.502 0.0603333333,9.98 C0.0603333333,15.458 4.50166667,19.8986667 9.97966667,19.8986667 C15.4583333,19.8986667 19.899,15.458 19.899,9.98 Z" id="Stroke-3" stroke="#000000" stroke-width="3" stroke-linecap="square"></path>
                            <path d="M44.093,19.8989333 C49.571,19.8989333 54.0116667,15.4582667 54.0116667,9.98026667 C54.0116667,4.50226667 58.453,0.0609333333 63.931,0.0609333333" id="Stroke-5" stroke="#000000" stroke-width="3" stroke-linecap="square"></path>
                            <path d="M62,19.6666667 C62,18.562 62.898,17.6666667 64,17.6666667 C65.1046667,17.6666667 66,18.564 66,19.6666667 C66,20.7713333 65.102,21.6666667 64,21.6666667 C62.8953333,21.6666667 62,20.7693333 62,19.6666667" id="Fill-7" fill="#FF3366"></path>
                        </g>
                    </g>
                </g>
            </g>
        </g>
    </g>
</svg>